<svg xmlns="http://www.w3.org/2000/svg" width="512" height="512"><circle cx="256" cy="256" r="170.839" fill="#939598"/><path d="M256 433.839c-98.061 0-177.839-79.778-177.839-177.839S157.939 78.161 256 78.161 433.839 157.939 433.839 256 354.061 433.839 256 433.839zm0-341.678c-90.341 0-163.839 73.498-163.839 163.839S165.659 419.839 256 419.839 419.839 346.341 419.839 256 346.341 92.161 256 92.161z"/><circle cx="256" cy="256" r="130.412" fill="#58595B"/><path d="M256 393.412c-75.77 0-137.412-61.643-137.412-137.412 0-75.77 61.643-137.412 137.412-137.412S393.412 180.231 393.412 256c0 75.77-61.642 137.412-137.412 137.412zm0-260.824c-68.05 0-123.412 55.362-123.412 123.412 0 68.049 55.362 123.412 123.412 123.412 68.049 0 123.412-55.362 123.412-123.412 0-68.049-55.362-123.412-123.412-123.412z"/><circle cx="67.002" cy="149.549" r="12.413" fill="#FCAF17"/><path d="M67.002 168.962c-10.704 0-19.413-8.708-19.413-19.413 0-10.704 8.708-19.413 19.413-19.413s19.413 8.708 19.413 19.413c0 10.704-8.708 19.413-19.413 19.413zm0-24.826a5.42 5.42 0 0 0-5.413 5.413 5.419 5.419 0 0 0 5.413 5.413 5.419 5.419 0 0 0 5.413-5.413 5.419 5.419 0 0 0-5.413-5.413z"/><circle cx="459.077" cy="49.511" r="12.413" fill="#FCAF17"/><path d="M459.076 68.924c-10.704 0-19.412-8.708-19.412-19.413 0-10.704 8.708-19.413 19.412-19.413 10.705 0 19.414 8.708 19.414 19.413 0 10.704-8.709 19.413-19.414 19.413zm0-24.826a5.419 5.419 0 0 0-5.412 5.413 5.419 5.419 0 0 0 5.412 5.413 5.42 5.42 0 0 0 5.414-5.413 5.419 5.419 0 0 0-5.414-5.413z"/><circle cx="446.664" cy="360.543" r="12.413" fill="#FCAF17"/><path d="M446.663 379.957c-10.704 0-19.412-8.709-19.412-19.414 0-10.704 8.708-19.412 19.412-19.412 10.705 0 19.414 8.708 19.414 19.412 0 10.705-8.709 19.414-19.414 19.414zm0-24.826a5.418 5.418 0 0 0-5.412 5.412 5.42 5.42 0 0 0 5.412 5.414 5.42 5.42 0 0 0 5.414-5.414 5.42 5.42 0 0 0-5.414-5.412z"/><circle cx="111.063" cy="439.251" r="12.413" fill="#FCAF17"/><path d="M111.063 458.665c-10.704 0-19.412-8.709-19.412-19.414 0-10.704 8.708-19.412 19.412-19.412 10.705 0 19.414 8.708 19.414 19.412 0 10.705-8.709 19.414-19.414 19.414zm0-24.826a5.418 5.418 0 0 0-5.412 5.412 5.42 5.42 0 0 0 5.412 5.414 5.42 5.42 0 0 0 5.414-5.414 5.42 5.42 0 0 0-5.414-5.412zM233.622 490.35a7 7 0 0 1-7-7c0-39.805 11.871-59.905 23.351-79.344 11.009-18.64 21.406-36.246 21.406-72.226s-10.397-53.585-21.406-72.225c-11.48-19.438-23.352-39.539-23.352-79.344 0-39.804 11.871-59.903 23.352-79.341 11.008-18.638 21.406-36.243 21.406-72.22a7 7 0 1 1 14 0c0 39.803-11.871 59.902-23.352 79.34-11.008 18.639-21.406 36.244-21.406 72.222 0 35.979 10.398 53.585 21.406 72.225 11.48 19.438 23.352 39.539 23.352 79.344 0 39.806-11.871 59.906-23.352 79.345-11.008 18.64-21.406 36.245-21.406 72.225a6.999 6.999 0 0 1-6.999 6.999z"/><path d="M79.415 407.936a6.978 6.978 0 0 1-4.95-2.051 6.999 6.999 0 0 1 0-9.899c28.146-28.145 50.753-33.964 72.616-39.592 20.964-5.396 40.766-10.492 66.207-35.934 25.442-25.441 30.539-45.243 35.935-66.207 5.627-21.863 11.447-44.47 39.592-72.616 28.146-28.146 50.752-33.964 72.615-39.591 20.963-5.396 40.765-10.492 66.204-35.932a7 7 0 0 1 9.9 9.899c-28.146 28.146-50.753 33.964-72.615 39.591-20.964 5.396-40.765 10.492-66.204 35.932-25.441 25.441-30.538 45.242-35.935 66.207-5.628 21.862-11.447 44.47-39.594 72.617-28.146 28.146-50.753 33.964-72.616 39.592-20.964 5.396-40.766 10.493-66.207 35.934a6.975 6.975 0 0 1-4.948 2.05z"/><path d="M483.35 285.379c-39.804 0-59.903-11.871-79.341-23.352-18.639-11.008-36.243-21.406-72.221-21.406-35.979 0-53.586 10.398-72.225 21.406-19.439 11.48-39.54 23.352-79.345 23.352s-59.905-11.871-79.344-23.352C82.236 251.02 64.63 240.622 28.65 240.622a7 7 0 1 1 0-14c39.805 0 59.905 11.871 79.344 23.351 18.64 11.008 36.245 21.406 72.225 21.406s53.585-10.397 72.225-21.406c19.439-11.48 39.539-23.352 79.344-23.352 39.803 0 59.902 11.871 79.34 23.351 18.639 11.009 36.244 21.406 72.222 21.406a7 7 0 0 1 0 14.001z"/><path d="M400.937 439.585a6.978 6.978 0 0 1-4.95-2.051c-28.144-28.145-33.962-50.751-39.589-72.613-5.396-20.964-10.491-40.766-35.933-66.205-25.441-25.442-45.242-30.539-66.207-35.936-21.863-5.627-44.47-11.446-72.616-39.593-28.147-28.146-33.966-50.753-39.594-72.616-5.396-20.964-10.493-40.765-35.935-66.207a7 7 0 0 1 9.899-9.899c28.146 28.146 33.965 50.753 39.593 72.616 5.396 20.964 10.494 40.765 35.936 66.207 25.441 25.442 45.243 30.539 66.207 35.935 21.863 5.627 44.471 11.446 72.617 39.593 28.146 28.146 33.964 50.753 39.591 72.615 5.396 20.964 10.491 40.765 35.931 66.205a7 7 0 0 1-4.95 11.949z"/><circle cx="256" cy="256" r="32.194" fill="#3D3D3D"/><path d="M256 295.193c-21.611 0-39.194-17.582-39.194-39.193s17.583-39.194 39.194-39.194 39.193 17.583 39.193 39.194-17.582 39.193-39.193 39.193zm0-64.387c-13.892 0-25.194 11.302-25.194 25.194s11.302 25.193 25.194 25.193 25.193-11.302 25.193-25.193c0-13.892-11.301-25.194-25.193-25.194z"/></svg>