<svg xmlns="http://www.w3.org/2000/svg" viewBox="0 0 64 64"><circle cx="32" cy="32" r="6" fill="#f29e61"/><circle cx="32" cy="32" r="2" fill="#ffd769"/><ellipse cx="40" cy="17" fill="#94deff" rx="3" ry="2"/><ellipse cx="23" cy="47" fill="#5b9eef" rx="3" ry="2"/><ellipse cx="17" cy="24" fill="#f9707a" rx="2" ry="3"/><ellipse cx="47" cy="42" fill="#4bc4bb" rx="2" ry="3"/><circle cx="20" cy="38" r="1" fill="#4bc4bb"/><circle cx="14" cy="12" r="1" fill="#94deff"/><circle cx="45" cy="26" r="1" fill="#5b9eef"/><circle cx="53" cy="52" r="1" fill="#f9707a"/><path fill="#75265d" d="M44.567 48.238A14.552 14.552 0 0 1 32 55.5a.5.5 0 0 0 0 1c5.522 0 10.67-2.975 13.433-7.762a.498.498 0 0 0-.183-.683.501.501 0 0 0-.683.183zM17.854 18.5a.502.502 0 0 0 .472-.333A14.524 14.524 0 0 1 32 8.5a.5.5 0 0 0 0-1 15.527 15.527 0 0 0-14.618 10.333.502.502 0 0 0 .472.667zm28.721-.967a.5.5 0 1 0-.359.933C51.769 20.608 55.5 26.047 55.5 32a.5.5 0 0 0 1 0c0-6.363-3.988-12.178-9.925-14.467zm-12.342 1.64a.5.5 0 0 0-.467-.885A15.475 15.475 0 0 0 25.5 32c0 1.92.842 3.643 2.17 4.834a14.472 14.472 0 0 1-8.497-7.067.502.502 0 0 0-.885.467A15.475 15.475 0 0 0 32 38.5c1.92 0 3.644-.842 4.835-2.171a14.503 14.503 0 0 1-8.035 8.965.5.5 0 0 0 .4.916A15.507 15.507 0 0 0 38.5 32a6.48 6.48 0 0 0-2.16-4.825c4.135 1.313 7.589 4.45 9.193 8.609a.502.502 0 0 0 .647.287.5.5 0 0 0 .287-.646C44.178 29.488 38.363 25.5 32 25.5c-1.92 0-3.643.842-4.834 2.17a14.472 14.472 0 0 1 7.067-8.497zm-5.759 17.043c.479.173.988.284 1.526.284 2.309 0 4.195-1.754 4.449-3.997a2.524 2.524 0 0 0 .001-.996A3.487 3.487 0 0 1 35.5 34c0 1.93-1.57 3.5-3.5 3.5a5.477 5.477 0 0 1-3.526-1.284zm4.995-3.914A1.502 1.502 0 0 1 32 33.5c-.103 0-.201-.022-.302-.031A1.502 1.502 0 0 1 30.5 32c0-.103.022-.201.031-.302A1.502 1.502 0 0 1 32 30.5c.103 0 .201.022.302.031.683.14 1.198.745 1.198 1.469 0 .103-.022.201-.031.302zm2.747 3.224c.173-.479.284-.988.284-1.526 0-2.309-1.754-4.195-3.997-4.449a2.524 2.524 0 0 0-.996-.001A3.487 3.487 0 0 1 34 28.5c1.93 0 3.5 1.57 3.5 3.5 0 1.341-.484 2.57-1.284 3.526zm-.69-7.742A4.473 4.473 0 0 0 34 27.5c-2.309 0-4.195 1.754-4.449 3.997a2.524 2.524 0 0 0-.001.996A3.483 3.483 0 0 1 28.5 30c0-1.93 1.57-3.5 3.5-3.5 1.341 0 2.57.484 3.526 1.284zm-7.742.69A4.473 4.473 0 0 0 27.5 30c0 2.309 1.754 4.195 3.997 4.449a2.524 2.524 0 0 0 .996.001A3.483 3.483 0 0 1 30 35.5c-1.93 0-3.5-1.57-3.5-3.5 0-1.341.484-2.57 1.284-3.526zM16.8 46.21a.5.5 0 0 0 .4-.916A14.506 14.506 0 0 1 8.5 32a.5.5 0 0 0-1 0c0 6.164 3.65 11.742 9.3 14.21zM43.5 17c0-1.402-1.537-2.5-3.5-2.5s-3.5 1.098-3.5 2.5 1.537 2.5 3.5 2.5 3.5-1.098 3.5-2.5zm-6 0c0-.813 1.145-1.5 2.5-1.5s2.5.687 2.5 1.5-1.145 1.5-2.5 1.5-2.5-.687-2.5-1.5zm-18 30c0 1.402 1.537 2.5 3.5 2.5s3.5-1.098 3.5-2.5-1.537-2.5-3.5-2.5-3.5 1.098-3.5 2.5zm6 0c0 .813-1.145 1.5-2.5 1.5s-2.5-.687-2.5-1.5 1.145-1.5 2.5-1.5 2.5.687 2.5 1.5zm-11-23c0 1.963 1.098 3.5 2.5 3.5s2.5-1.537 2.5-3.5-1.098-3.5-2.5-3.5-2.5 1.537-2.5 3.5zm4 0c0 1.355-.687 2.5-1.5 2.5s-1.5-1.145-1.5-2.5.687-2.5 1.5-2.5 1.5 1.145 1.5 2.5zM47 45.5c1.402 0 2.5-1.537 2.5-3.5s-1.098-3.5-2.5-3.5-2.5 1.537-2.5 3.5 1.098 3.5 2.5 3.5zm0-6c.813 0 1.5 1.145 1.5 2.5s-.687 2.5-1.5 2.5-1.5-1.145-1.5-2.5.687-2.5 1.5-2.5z"/><path fill="#5b9eef" d="M56 9.5h-1.5V8a.5.5 0 0 0-1 0v1.5H52a.5.5 0 0 0 0 1h1.5V12a.5.5 0 0 0 1 0v-1.5H56a.5.5 0 0 0 0-1zm-48 45h1.5V56a.5.5 0 0 0 1 0v-1.5H12a.5.5 0 0 0 0-1h-1.5V52a.5.5 0 0 0-1 0v1.5H8a.5.5 0 0 0 0 1z"/></svg>