<svg xmlns="http://www.w3.org/2000/svg" enable-background="new 0 0 64 64" viewBox="0 0 64 64"><path d="M64,17.71c0-0.13-0.03-0.25-0.08-0.37c-0.02-0.04-0.05-0.08-0.08-0.12c-0.04-0.06-0.06-0.12-0.12-0.18
		C51.92,5.17,30.49,5.16,29.59,5.19c-0.22,0-0.43,0.08-0.61,0.22L0.36,28.69c-0.02,0.02-0.03,0.04-0.05,0.06
		c-0.06,0.05-0.1,0.11-0.14,0.18c-0.03,0.04-0.05,0.08-0.07,0.12c-0.03,0.06-0.05,0.13-0.06,0.2c-0.01,0.05-0.02,0.09-0.03,0.14
		c0,0.02-0.01,0.03-0.01,0.05v5.8c0,0,0,0.01,0,0.01v7.35c0,0,0,0.01,0,0.01v15.23c0,0.29,0.13,0.57,0.35,0.75
		c0.18,0.14,0.39,0.22,0.62,0.22c0.06,0,0.13-0.01,0.19-0.02l62.06-12.32c0.45-0.09,0.78-0.49,0.78-0.95v-27.8
		C64,17.72,64,17.71,64,17.71z M29.94,7.13c2.65,0.05,20.35,0.71,31.03,10L4.55,27.78L29.94,7.13z M1.94,35.92
		c0.22-0.05,0.45-0.08,0.68-0.08c1.7,0,3.09,1.39,3.09,3.09c0,1.7-1.39,3.09-3.09,3.09c-0.23,0-0.46-0.03-0.68-0.08V35.92z
		 M25.29,51.93c0-1.7,1.38-3.08,3.08-3.08c1.31,0,2.43,0.83,2.87,2l-5.95,1.18C25.29,51.99,25.29,51.96,25.29,51.93z M62.06,44.73
		l-28.9,5.74c-0.63-2.06-2.56-3.56-4.79-3.56c-2.77,0-5.02,2.25-5.02,5.02c0,0.16,0.02,0.32,0.04,0.48L1.94,56.67V43.91
		c0.23,0.03,0.45,0.05,0.68,0.05c2.77,0,5.03-2.26,5.03-5.03S5.39,33.9,2.62,33.9c-0.23,0-0.46,0.02-0.68,0.05v-3.71l60.12-11.36
		V44.73z"/><path d="M52.51 36.13c3.02 0 5.48-2.46 5.48-5.48s-2.46-5.48-5.48-5.48c-3.02 0-5.48 2.46-5.48 5.48S49.49 36.13 52.51 36.13zM52.51 27.11c1.95 0 3.54 1.59 3.54 3.54s-1.59 3.54-3.54 3.54c-1.95 0-3.54-1.59-3.54-3.54S50.56 27.11 52.51 27.11zM39.65 45.26c2.52 0 4.58-2.05 4.58-4.58 0-2.52-2.05-4.58-4.58-4.58-2.52 0-4.58 2.05-4.58 4.58C35.07 43.21 37.12 45.26 39.65 45.26zM39.65 38.05c1.45 0 2.64 1.18 2.64 2.64 0 1.45-1.18 2.64-2.64 2.64-1.45 0-2.64-1.18-2.64-2.64C37.01 39.23 38.19 38.05 39.65 38.05zM24.31 40.18c2.77 0 5.03-2.26 5.03-5.03s-2.26-5.03-5.03-5.03c-2.77 0-5.03 2.25-5.03 5.03S21.54 40.18 24.31 40.18zM24.31 32.07c1.7 0 3.09 1.38 3.09 3.09 0 1.7-1.39 3.09-3.09 3.09-1.7 0-3.09-1.39-3.09-3.09C21.23 33.45 22.61 32.07 24.31 32.07zM14.1 50.27c2.27 0 4.13-1.85 4.13-4.13 0-2.27-1.85-4.13-4.13-4.13-2.27 0-4.13 1.85-4.13 4.13C9.97 48.42 11.83 50.27 14.1 50.27zM14.1 43.96c1.21 0 2.19.98 2.19 2.19 0 1.21-.98 2.19-2.19 2.19s-2.19-.98-2.19-2.19C11.91 44.94 12.89 43.96 14.1 43.96zM39.9 18.56c.27.02.53.03.79.03 3.04 0 5.45-1.48 5.62-3.57.19-2.27-2.34-4.26-5.75-4.54-1.54-.12-3.03.12-4.2.7-1.33.66-2.12 1.67-2.21 2.84C33.97 16.28 36.49 18.27 39.9 18.56zM37.23 12.91c.7-.34 1.61-.53 2.57-.53.2 0 .41.01.61.03 2.37.19 4.05 1.45 3.97 2.45s-1.94 1.96-4.32 1.77c-2.37-.2-4.05-1.45-3.97-2.45C36.13 13.71 36.54 13.25 37.23 12.91zM24.51 21.69c.19.02.38.02.57.02.93 0 1.81-.19 2.54-.55 1.02-.5 1.64-1.32 1.72-2.23.14-1.76-1.75-3.3-4.31-3.51-1.14-.09-2.24.09-3.11.52-1.02.5-1.64 1.32-1.72 2.23C20.05 19.94 21.94 21.48 24.51 21.69zM22.77 17.68c.45-.22 1.05-.34 1.68-.34.14 0 .27.01.41.02 1.58.13 2.58.94 2.54 1.42-.02.22-.26.46-.64.66-.55.27-1.31.39-2.09.33-1.58-.13-2.58-.94-2.54-1.42C22.15 18.12 22.39 17.87 22.77 17.68z"/></svg>